<svg width="585" height="585" viewBox="0 0 585 585" fill="none" xmlns="http://www.w3.org/2000/svg">
<path d="M585 292.5C585 454.043 454.043 585 292.5 585C130.957 585 0 454.043 0 292.5C0 130.957 130.957 0 292.5 0C454.043 0 585 130.957 585 292.5ZM29.25 292.5C29.25 437.889 147.111 555.75 292.5 555.75C437.889 555.75 555.75 437.889 555.75 292.5C555.75 147.111 437.889 29.25 292.5 29.25C147.111 29.25 29.25 147.111 29.25 292.5Z" fill="url(#paint0_linear_471_2003)"/>
<path d="M585 292.5C585 454.043 454.043 585 292.5 585C130.957 585 0 454.043 0 292.5C0 130.957 130.957 0 292.5 0C454.043 0 585 130.957 585 292.5ZM29.25 292.5C29.25 437.889 147.111 555.75 292.5 555.75C437.889 555.75 555.75 437.889 555.75 292.5C555.75 147.111 437.889 29.25 292.5 29.25C147.111 29.25 29.25 147.111 29.25 292.5Z" fill="url(#paint1_linear_471_2003)" style="mix-blend-mode:overlay"/>
<path d="M585 292.5C585 454.043 454.043 585 292.5 585C130.957 585 0 454.043 0 292.5C0 130.957 130.957 0 292.5 0C454.043 0 585 130.957 585 292.5ZM29.25 292.5C29.25 437.889 147.111 555.75 292.5 555.75C437.889 555.75 555.75 437.889 555.75 292.5C555.75 147.111 437.889 29.25 292.5 29.25C147.111 29.25 29.25 147.111 29.25 292.5Z" fill="#FAF000" style="mix-blend-mode:color"/>
<g clip-path="url(#clip0_471_2003)">
<path d="M51.3721 132.615C170.821 225.215 415.872 225.215 535.321 132.615V89.6116C415.872 213.048 170.821 213.048 51.3721 89.6116C51.3721 103.915 51.3721 118.218 51.3721 132.615Z" fill="url(#paint2_linear_471_2003)"/>
<path d="M51.3721 132.615C170.821 225.215 415.872 225.215 535.321 132.615V89.6116C415.872 213.048 170.821 213.048 51.3721 89.6116C51.3721 103.915 51.3721 118.218 51.3721 132.615Z" fill="url(#paint3_linear_471_2003)" style="mix-blend-mode:overlay"/>
<path d="M51.3721 132.615C170.821 225.215 415.872 225.215 535.321 132.615V89.6116C415.872 213.048 170.821 213.048 51.3721 89.6116C51.3721 103.915 51.3721 118.218 51.3721 132.615Z" fill="#FAF000" style="mix-blend-mode:color"/>
<path d="M51.3721 223.491C170.821 262.128 415.872 262.128 535.321 223.491V180.488C415.872 249.868 170.821 249.868 51.3721 180.488C51.3721 194.791 51.3721 209.095 51.3721 223.491Z" fill="url(#paint4_linear_471_2003)"/>
<path d="M51.3721 223.491C170.821 262.128 415.872 262.128 535.321 223.491V180.488C415.872 249.868 170.821 249.868 51.3721 180.488C51.3721 194.791 51.3721 209.095 51.3721 223.491Z" fill="url(#paint5_linear_471_2003)" style="mix-blend-mode:overlay"/>
<path d="M51.3721 223.491C170.821 262.128 415.872 262.128 535.321 223.491V180.488C415.872 249.868 170.821 249.868 51.3721 180.488C51.3721 194.791 51.3721 209.095 51.3721 223.491Z" fill="#FAF000" style="mix-blend-mode:color"/>
<path d="M51.3721 314.315C170.821 298.897 415.872 298.897 535.321 314.315V271.312C415.872 286.73 170.821 286.73 51.3721 271.312C51.3721 285.615 51.3721 299.919 51.3721 314.315Z" fill="url(#paint6_linear_471_2003)"/>
<path d="M51.3721 314.315C170.821 298.897 415.872 298.897 535.321 314.315V271.312C415.872 286.73 170.821 286.73 51.3721 271.312C51.3721 285.615 51.3721 299.919 51.3721 314.315Z" fill="url(#paint7_linear_471_2003)" style="mix-blend-mode:overlay"/>
<path d="M51.3721 314.315C170.821 298.897 415.872 298.897 535.321 314.315V271.312C415.872 286.73 170.821 286.73 51.3721 271.312C51.3721 285.615 51.3721 299.919 51.3721 314.315Z" fill="#FAF000" style="mix-blend-mode:color"/>
<path d="M51.3721 405.226C170.821 335.845 415.872 335.845 535.321 405.226V362.223C415.872 323.585 170.821 323.585 51.3721 362.223C51.3721 376.526 51.3721 390.83 51.3721 405.226Z" fill="url(#paint8_linear_471_2003)"/>
<path d="M51.3721 405.226C170.821 335.845 415.872 335.845 535.321 405.226V362.223C415.872 323.585 170.821 323.585 51.3721 362.223C51.3721 376.526 51.3721 390.83 51.3721 405.226Z" fill="url(#paint9_linear_471_2003)" style="mix-blend-mode:overlay"/>
<path d="M51.3721 405.226C170.821 335.845 415.872 335.845 535.321 405.226V362.223C415.872 323.585 170.821 323.585 51.3721 362.223C51.3721 376.526 51.3721 390.83 51.3721 405.226Z" fill="#FAF000" style="mix-blend-mode:color"/>
<path d="M51.3721 496.064C170.821 372.628 415.872 372.628 535.321 496.064V453.061C415.872 360.461 170.821 360.461 51.3721 453.061C51.3721 467.364 51.3721 481.668 51.3721 496.064Z" fill="url(#paint10_linear_471_2003)"/>
<path d="M51.3721 496.064C170.821 372.628 415.872 372.628 535.321 496.064V453.061C415.872 360.461 170.821 360.461 51.3721 453.061C51.3721 467.364 51.3721 481.668 51.3721 496.064Z" fill="url(#paint11_linear_471_2003)" style="mix-blend-mode:overlay"/>
<path d="M51.3721 496.064C170.821 372.628 415.872 372.628 535.321 496.064V453.061C415.872 360.461 170.821 360.461 51.3721 453.061C51.3721 467.364 51.3721 481.668 51.3721 496.064Z" fill="#FAF000" style="mix-blend-mode:color"/>
<path fill-rule="evenodd" clip-rule="evenodd" d="M158.421 244.971L184.5 247.696L184.956 281L158.421 279.884V244.971ZM423.776 356.794H397.24V303.679H423.776V356.794Z" fill="url(#paint12_linear_471_2003)"/>
<path fill-rule="evenodd" clip-rule="evenodd" d="M158.421 244.971L184.5 247.696L184.956 281L158.421 279.884V244.971ZM423.776 356.794H397.24V303.679H423.776V356.794Z" fill="url(#paint13_linear_471_2003)" style="mix-blend-mode:overlay"/>
<path fill-rule="evenodd" clip-rule="evenodd" d="M158.421 244.971L184.5 247.696L184.956 281L158.421 279.884V244.971ZM423.776 356.794H397.24V303.679H423.776V356.794Z" fill="#FAF000" style="mix-blend-mode:color"/>
</g>
<defs>
<linearGradient id="paint0_linear_471_2003" x1="32.4345" y1="365.882" x2="578.021" y2="238.076" gradientUnits="userSpaceOnUse">
<stop stop-color="#576265"/>
<stop offset="0.172016" stop-color="#9EA1A1"/>
<stop offset="0.45741" stop-color="#848B8A"/>
<stop offset="0.553567" stop-color="#576265"/>
<stop offset="0.823421" stop-color="#576265"/>
<stop offset="0.925155" stop-color="#757A7B"/>
<stop offset="1" stop-color="#576265"/>
</linearGradient>
<linearGradient id="paint1_linear_471_2003" x1="233.528" y1="292.5" x2="116.846" y2="-12.0078" gradientUnits="userSpaceOnUse">
<stop stop-color="white" stop-opacity="0"/>
<stop offset="1" stop-color="white"/>
</linearGradient>
<linearGradient id="paint2_linear_471_2003" x1="78.2039" y1="343.822" x2="519.949" y2="220.612" gradientUnits="userSpaceOnUse">
<stop stop-color="#576265"/>
<stop offset="0.172016" stop-color="#9EA1A1"/>
<stop offset="0.45741" stop-color="#848B8A"/>
<stop offset="0.553567" stop-color="#576265"/>
<stop offset="0.823421" stop-color="#576265"/>
<stop offset="0.925155" stop-color="#757A7B"/>
<stop offset="1" stop-color="#576265"/>
</linearGradient>
<linearGradient id="paint3_linear_471_2003" x1="244.561" y1="292.838" x2="173.805" y2="72.9752" gradientUnits="userSpaceOnUse">
<stop stop-color="white" stop-opacity="0"/>
<stop offset="1" stop-color="white"/>
</linearGradient>
<linearGradient id="paint4_linear_471_2003" x1="78.2039" y1="343.822" x2="519.949" y2="220.612" gradientUnits="userSpaceOnUse">
<stop stop-color="#576265"/>
<stop offset="0.172016" stop-color="#9EA1A1"/>
<stop offset="0.45741" stop-color="#848B8A"/>
<stop offset="0.553567" stop-color="#576265"/>
<stop offset="0.823421" stop-color="#576265"/>
<stop offset="0.925155" stop-color="#757A7B"/>
<stop offset="1" stop-color="#576265"/>
</linearGradient>
<linearGradient id="paint5_linear_471_2003" x1="244.561" y1="292.838" x2="173.805" y2="72.9752" gradientUnits="userSpaceOnUse">
<stop stop-color="white" stop-opacity="0"/>
<stop offset="1" stop-color="white"/>
</linearGradient>
<linearGradient id="paint6_linear_471_2003" x1="78.2039" y1="343.822" x2="519.949" y2="220.612" gradientUnits="userSpaceOnUse">
<stop stop-color="#576265"/>
<stop offset="0.172016" stop-color="#9EA1A1"/>
<stop offset="0.45741" stop-color="#848B8A"/>
<stop offset="0.553567" stop-color="#576265"/>
<stop offset="0.823421" stop-color="#576265"/>
<stop offset="0.925155" stop-color="#757A7B"/>
<stop offset="1" stop-color="#576265"/>
</linearGradient>
<linearGradient id="paint7_linear_471_2003" x1="244.561" y1="292.838" x2="173.805" y2="72.9752" gradientUnits="userSpaceOnUse">
<stop stop-color="white" stop-opacity="0"/>
<stop offset="1" stop-color="white"/>
</linearGradient>
<linearGradient id="paint8_linear_471_2003" x1="78.2039" y1="343.822" x2="519.949" y2="220.612" gradientUnits="userSpaceOnUse">
<stop stop-color="#576265"/>
<stop offset="0.172016" stop-color="#9EA1A1"/>
<stop offset="0.45741" stop-color="#848B8A"/>
<stop offset="0.553567" stop-color="#576265"/>
<stop offset="0.823421" stop-color="#576265"/>
<stop offset="0.925155" stop-color="#757A7B"/>
<stop offset="1" stop-color="#576265"/>
</linearGradient>
<linearGradient id="paint9_linear_471_2003" x1="244.561" y1="292.838" x2="173.805" y2="72.9752" gradientUnits="userSpaceOnUse">
<stop stop-color="white" stop-opacity="0"/>
<stop offset="1" stop-color="white"/>
</linearGradient>
<linearGradient id="paint10_linear_471_2003" x1="78.2039" y1="343.822" x2="519.949" y2="220.612" gradientUnits="userSpaceOnUse">
<stop stop-color="#576265"/>
<stop offset="0.172016" stop-color="#9EA1A1"/>
<stop offset="0.45741" stop-color="#848B8A"/>
<stop offset="0.553567" stop-color="#576265"/>
<stop offset="0.823421" stop-color="#576265"/>
<stop offset="0.925155" stop-color="#757A7B"/>
<stop offset="1" stop-color="#576265"/>
</linearGradient>
<linearGradient id="paint11_linear_471_2003" x1="244.561" y1="292.838" x2="173.805" y2="72.9752" gradientUnits="userSpaceOnUse">
<stop stop-color="white" stop-opacity="0"/>
<stop offset="1" stop-color="white"/>
</linearGradient>
<linearGradient id="paint12_linear_471_2003" x1="78.2039" y1="343.822" x2="519.949" y2="220.612" gradientUnits="userSpaceOnUse">
<stop stop-color="#576265"/>
<stop offset="0.172016" stop-color="#9EA1A1"/>
<stop offset="0.45741" stop-color="#848B8A"/>
<stop offset="0.553567" stop-color="#576265"/>
<stop offset="0.823421" stop-color="#576265"/>
<stop offset="0.925155" stop-color="#757A7B"/>
<stop offset="1" stop-color="#576265"/>
</linearGradient>
<linearGradient id="paint13_linear_471_2003" x1="244.561" y1="292.838" x2="173.805" y2="72.9752" gradientUnits="userSpaceOnUse">
<stop stop-color="white" stop-opacity="0"/>
<stop offset="1" stop-color="white"/>
</linearGradient>
<clipPath id="clip0_471_2003">
<rect x="161.51" y="159.338" width="262" height="267" fill="white"/>
</clipPath>
</defs>
</svg>
